<svg width="54" height="39" viewBox="0 0 54 39" fill="none" xmlns="http://www.w3.org/2000/svg">
<path d="M14.1825 29.9899H8.64894V24.3787H1.33521V37.2126H16.3187C17.7726 37.2126 19.1967 37.0368 20.5764 36.6999L14.1825 29.9899ZM34.5956 17.9471C34.2989 13.4347 32.3704 9.44968 29.2847 6.3877C25.8132 3.062 21.3033 1.09882 16.3336 1.09882H1.33521V13.42L17.1198 30.0045L23.9885 37.2126H34.3286L29.2698 31.9384C30.2193 31.0008 31.05 29.9899 31.7621 28.8911L26.4511 23.3238C25.9319 24.6277 25.205 25.8291 24.389 26.7521L8.66378 10.3434V8.30693H16.3187C18.6775 8.30693 20.8731 9.03946 22.6682 10.2994H16.9566L20.7248 14.2404L25.9319 19.6905L25.9912 19.7491L27.1484 20.9651L32.8599 26.9425L33.661 27.7923L42.6215 37.198H52.9764L34.5956 17.9471Z" fill="white"/>
<path d="M52.9912 17.6394V28.4809L35.6193 10.2994H45.989L52.9912 17.6394Z" fill="white"/>
</svg>
