<svg width="24" height="20" viewBox="0 0 24 20" fill="none" xmlns="http://www.w3.org/2000/svg">
<path d="M21.5156 4.875C21.5469 5.09375 21.5625 5.29688 21.5625 5.48438C21.5625 7.70312 21.0156 9.875 19.9219 12C18.8594 14.125 17.2812 15.8906 15.1875 17.2969C13.125 18.7031 10.5781 19.4375 7.54688 19.5C4.73438 19.4688 2.21875 18.7344 0 17.2969C0.375 17.3281 0.765625 17.3438 1.17188 17.3438C3.51562 17.3125 5.5625 16.6094 7.3125 15.2344C6.1875 15.2031 5.21875 14.875 4.40625 14.25C3.59375 13.625 3.03125 12.8281 2.71875 11.8594C3 11.8906 3.29688 11.9062 3.60938 11.9062C4.07812 11.9062 4.51562 11.8594 4.92188 11.7656C3.76562 11.5156 2.82812 10.9531 2.10938 10.0781C1.39062 9.20312 1.01562 8.15625 0.984375 6.9375V6.84375C1.64062 7.21875 2.375 7.4375 3.1875 7.5C1.8125 6.53125 1.07812 5.15625 0.984375 3.375C1.01562 2.46875 1.25 1.64062 1.6875 0.890625C2.90625 2.39062 4.39062 3.59375 6.14062 4.5C7.85938 5.40625 9.75 5.92188 11.8125 6.04688C11.75 5.67188 11.7188 5.29688 11.7188 4.92188C11.75 3.54688 12.2188 2.39062 13.125 1.45312C14.0625 0.515625 15.2188 0.03125 16.5938 0C18.0625 0.03125 19.2656 0.546875 20.2031 1.54688C21.3281 1.32812 22.375 0.9375 23.3438 0.375C22.9375 1.53125 22.2188 2.4375 21.1875 3.09375C22.1562 2.96875 23.0938 2.70312 24 2.29688C23.3125 3.29688 22.4844 4.15625 21.5156 4.875Z" fill="#071D31"/>
</svg>
