<svg width="27" height="18" viewBox="0 0 27 18" fill="none" xmlns="http://www.w3.org/2000/svg">
<path d="M25.7812 2.8125C25.4062 1.65625 24.6406 0.890625 23.4844 0.515625C22.7344 0.359375 21.5781 0.234375 20.0156 0.140625C18.4531 0.078125 17 0.03125 15.6562 0C14.3125 0 13.5938 0 13.5 0C13.4062 0 12.6875 0 11.3438 0C10 0.03125 8.54688 0.078125 6.98438 0.140625C5.42188 0.234375 4.26562 0.359375 3.51562 0.515625C2.35938 0.890625 1.59375 1.65625 1.21875 2.8125C1.0625 3.53125 0.9375 4.35938 0.84375 5.29688C0.78125 6.26562 0.734375 7.125 0.703125 7.875C0.703125 8.59375 0.703125 8.96875 0.703125 9C0.703125 9.0625 0.703125 9.45312 0.703125 10.1719C0.734375 10.9219 0.78125 11.7656 0.84375 12.7031C0.9375 13.6719 1.0625 14.5156 1.21875 15.2344C1.59375 16.3906 2.35938 17.1406 3.51562 17.4844C4.26562 17.6406 5.42188 17.7656 6.98438 17.8594C8.54688 17.9219 10 17.9688 11.3438 18C12.6875 18 13.4062 18 13.5 18C13.5938 18 14.3125 18 15.6562 18C17 17.9688 18.4531 17.9219 20.0156 17.8594C21.5781 17.7656 22.7344 17.6406 23.4844 17.4844C24.6406 17.1406 25.4062 16.3906 25.7812 15.2344C25.9375 14.5156 26.0625 13.6719 26.1562 12.7031C26.2188 11.7656 26.2656 10.9219 26.2969 10.1719C26.2969 9.45312 26.2969 9.0625 26.2969 9C26.2969 8.96875 26.2969 8.59375 26.2969 7.875C26.2656 7.125 26.2188 6.26562 26.1562 5.29688C26.0625 4.35938 25.9375 3.53125 25.7812 2.8125ZM10.875 12.8438V5.20312L17.5781 9L10.875 12.8438Z" fill="#071D31"/>
</svg>
